<?xml version="1.0" standalone="no"?>
<!DOCTYPE svg PUBLIC "-//W3C//DTD SVG 20010904//EN"
 "http://www.w3.org/TR/2001/REC-SVG-20010904/DTD/svg10.dtd">
<svg version="1.0" xmlns="http://www.w3.org/2000/svg"
 width="138.000000pt" height="137.000000pt" viewBox="0 0 138.000000 137.000000"
 preserveAspectRatio="xMidYMid meet">

<g transform="translate(0.000000,137.000000) scale(0.100000,-0.100000)"
fill="#000000" stroke="none">
<path d="M646 1301 c-4 -6 -24 -11 -44 -11 -170 -1 -383 -148 -466 -323 -35
-73 -70 -209 -68 -267 1 -50 22 -149 42 -203 68 -181 248 -335 430 -367 36 -6
79 -16 95 -21 19 -5 42 -5 60 1 17 5 59 14 95 19 156 25 327 157 404 312 144
291 22 650 -270 794 -40 20 -106 43 -146 50 -40 8 -85 17 -99 21 -15 3 -30 1
-33 -5z m149 -36 c274 -70 460 -320 442 -595 -10 -149 -67 -272 -176 -380
-171 -169 -433 -208 -660 -97 -92 44 -207 159 -249 248 -111 234 -71 489 104
666 76 78 164 128 274 157 73 19 191 20 265 1z"/>
<path d="M588 1200 c-79 -14 -140 -38 -218 -86 -158 -97 -195 -159 -206 -341
-7 -128 9 -213 59 -307 102 -192 330 -299 539 -255 129 28 235 97 309 202 75
107 92 172 91 340 -2 166 -17 212 -92 279 -65 58 -179 127 -248 148 -72 22
-173 31 -234 20z m-18 -159 c25 -13 55 -32 67 -43 l22 -20 35 27 c79 60 205
82 284 49 47 -19 98 -67 125 -119 31 -57 30 -178 -2 -258 -49 -125 -155 -246
-311 -357 -140 -100 -123 -97 -215 -34 -206 139 -321 276 -371 444 -39 132 19
272 136 325 51 23 171 15 230 -14z"/>
<path d="M557 826 c-4 -10 -7 -25 -7 -34 0 -15 2 -15 10 -2 8 12 10 10 11 -10
0 -14 3 -20 5 -13 3 6 1 26 -4 44 -6 27 -10 30 -15 15z"/>
<path d="M735 787 c-4 -15 -5 -31 -1 -34 3 -4 6 2 7 13 1 10 7 -1 14 -26 7
-25 13 -36 13 -25 0 11 -5 38 -12 60 l-13 40 -8 -28z"/>
<path d="M542 750 c0 -14 2 -19 5 -12 2 6 2 18 0 25 -3 6 -5 1 -5 -13z"/>
<path d="M827 757 c-11 -29 -9 -53 4 -40 6 6 9 21 7 34 -3 21 -4 22 -11 6z"/>
<path d="M582 735 c0 -11 4 -31 8 -45 6 -20 8 -21 8 -5 0 11 -4 31 -8 45 -6
20 -8 21 -8 5z"/>
<path d="M721 724 c0 -11 3 -14 6 -6 3 7 2 16 -1 19 -3 4 -6 -2 -5 -13z"/>
<path d="M532 700 c0 -14 2 -19 5 -12 2 6 2 18 0 25 -3 6 -5 1 -5 -13z"/>
<path d="M432 668 c-6 -23 -9 -44 -7 -46 2 -2 8 11 13 29 l9 34 11 -40 c7 -22
12 -47 12 -55 1 -11 3 -10 11 4 8 12 8 20 1 25 -6 3 -13 23 -17 44 -10 52 -21
54 -33 5z"/>
<path d="M842 685 c0 -16 2 -22 5 -12 2 9 2 23 0 30 -3 6 -5 -1 -5 -18z"/>
<path d="M706 664 c-4 -20 -5 -38 -3 -40 3 -3 8 11 11 32 4 20 5 38 3 40 -3 3
-8 -11 -11 -32z"/>
<path d="M812 680 c0 -14 2 -19 5 -12 2 6 2 18 0 25 -3 6 -5 1 -5 -13z"/>
<path d="M772 670 c0 -14 2 -19 5 -12 2 6 2 18 0 25 -3 6 -5 1 -5 -13z"/>
<path d="M521 663 c0 -7 -8 -10 -16 -7 -10 4 -15 0 -15 -11 0 -9 5 -13 10 -10
6 3 10 1 10 -6 0 -10 3 -10 11 -2 6 6 9 19 6 29 -3 11 -5 14 -6 7z"/>
<path d="M602 640 c0 -14 2 -19 5 -12 2 6 2 18 0 25 -3 6 -5 1 -5 -13z"/>
<path d="M800 634 c0 -16 -2 -17 -10 -4 -8 12 -10 12 -10 -5 0 -11 4 -26 9
-34 6 -10 11 -5 16 18 4 18 4 35 1 38 -3 4 -6 -2 -6 -13z"/>
<path d="M852 630 c0 -14 2 -19 5 -12 2 6 2 18 0 25 -3 6 -5 1 -5 -13z"/>
<path d="M657 614 c-10 -11 -9 -36 2 -30 5 3 12 -4 15 -17 7 -21 7 -21 16 -2
5 11 9 27 9 35 0 9 -4 7 -9 -5 -8 -19 -8 -19 -17 3 -5 13 -12 20 -16 16z"/>
<path d="M611 594 c0 -11 3 -14 6 -6 3 7 2 16 -1 19 -3 4 -6 -2 -5 -13z"/>
<path d="M879 569 c0 -22 -1 -23 -9 -4 -8 18 -9 18 -9 -5 -1 -45 16 -56 23
-15 4 20 5 40 2 43 -3 3 -6 -6 -7 -19z"/>
<path d="M621 555 c0 -11 3 -26 8 -33 6 -10 10 -7 15 13 4 15 5 30 1 33 -3 3
-5 -3 -6 -14 0 -18 -1 -18 -9 1 l-9 20 0 -20z"/>
</g>
</svg>
